<svg xmlns="http://www.w3.org/2000/svg" viewBox="0 0 1080 1920" width="1080" height="1920">
  <defs>
    <linearGradient id="bgGrad2" x1="0%" y1="0%" x2="0%" y2="100%">
      <stop offset="0%" stop-color="#f0fdf4"/>
      <stop offset="25%" stop-color="#f8fafc"/>
      <stop offset="70%" stop-color="#f1f5f9"/>
      <stop offset="100%" stop-color="#e2e8f0"/>
    </linearGradient>

    <linearGradient id="phoneFrameGrad" x1="0%" y1="0%" x2="100%" y2="100%">
      <stop offset="0%" stop-color="#27272a"/>
      <stop offset="100%" stop-color="#09090b"/>
    </linearGradient>

    <linearGradient id="offerBadgeGrad" x1="0%" y1="0%" x2="100%" y2="100%">
      <stop offset="0%" stop-color="#bef264"/>
      <stop offset="100%" stop-color="#84cc16"/>
    </linearGradient>

    <filter id="shadowP2Lg" x="-15%" y="-15%" width="130%" height="130%">
      <feDropShadow dx="0" dy="24" stdDeviation="30" flood-color="#0f172a" flood-opacity="0.18"/>
    </filter>
    <filter id="shadowFeature" x="-10%" y="-10%" width="120%" height="120%">
      <feDropShadow dx="0" dy="8" stdDeviation="10" flood-color="#1e293b" flood-opacity="0.06"/>
    </filter>
  </defs>

  <!-- Background Base -->
  <rect width="1080" height="1920" fill="url(#bgGrad2)"/>
  
  <!-- Subtle decorative ambient circles -->
  <circle cx="540" cy="180" r="400" fill="#0284c7" fill-opacity="0.04" filter="blur(80px)"/>
  <circle cx="150" cy="700" r="300" fill="#10b981" fill-opacity="0.04" filter="blur(70px)"/>
  <circle cx="900" cy="1300" r="350" fill="#6366f1" fill-opacity="0.04" filter="blur(80px)"/>

  <!-- Top Center Logo -->
  <g transform="translate(540, 70)" text-anchor="middle">
    <!-- Logo Badge -->
    <g transform="translate(-140, -32)">
      <circle cx="32" cy="32" r="28" fill="#0284c7"/>
      <circle cx="32" cy="32" r="18" fill="#ffffff"/>
      <path d="M 32 14 A 18 18 0 0 1 50 32 L 32 32 Z" fill="#0284c7"/>
      <circle cx="32" cy="32" r="8" fill="#0284c7"/>
    </g>
    <text x="35" y="10" font-family="system-ui, -apple-system, sans-serif" font-size="46" font-weight="900" fill="#0f172a" letter-spacing="-0.5">GOGO LOG</text>
    
    <!-- Top Right Circular G icon -->
    <g transform="translate(420, -32)">
      <circle cx="32" cy="32" r="30" fill="#0284c7"/>
      <circle cx="32" cy="32" r="18" fill="#ffffff"/>
      <path d="M 32 14 A 18 18 0 0 1 50 32 L 32 32 Z" fill="#0284c7"/>
      <circle cx="32" cy="32" r="8" fill="#0284c7"/>
    </g>
  </g>

  <!-- Big Hero Punchy Headline -->
  <g transform="translate(540, 190)" text-anchor="middle">
    <text y="0" font-family="system-ui, -apple-system, sans-serif" font-size="52" font-weight="900" fill="#0f172a" letter-spacing="-1">
      RUN YOUR SHOP. MANAGE YOUR
    </text>
    <text y="58" font-family="system-ui, -apple-system, sans-serif" font-size="52" font-weight="900" fill="#0f172a" letter-spacing="-1">
      TEAM. SIMPLIFY EVERYTHING.
    </text>
    
    <!-- Subtitle -->
    <text y="112" font-family="system-ui, -apple-system, sans-serif" font-size="24" font-weight="800" fill="#334155">
      <tspan fill="#0284c7">GOGO LOG</tspan> — Smart Employee Management for Shop Owners
    </text>
  </g>

  <!-- CENTER SMARTPHONE MOCKUP (X: 380, Y: 360, W: 320, H: 650) -->
  <g transform="translate(380, 360)">
    <!-- Outer Phone Chassis -->
    <rect x="0" y="0" width="320" height="650" rx="44" fill="url(#phoneFrameGrad)" filter="url(#shadowP2Lg)"/>
    <rect x="3" y="3" width="314" height="644" rx="41" fill="#18181b"/>
    <!-- Glass Screen Frame -->
    <rect x="10" y="10" width="300" height="630" rx="36" fill="#f8fafc"/>

    <!-- Dynamic Island Notch -->
    <rect x="110" y="18" width="80" height="20" rx="10" fill="#000000"/>
    <circle cx="176" cy="28" r="4" fill="#1e293b"/>

    <!-- Inside Phone Screen Header -->
    <rect x="10" y="44" width="300" height="48" fill="#432bb3"/>
    <g transform="translate(24, 74)">
      <circle cx="8" cy="0" r="7" fill="#0284c7"/>
      <text x="20" y="4" font-family="system-ui, sans-serif" font-size="13" font-weight="800" fill="#ffffff">GOGO LOG</text>
      <text x="210" y="3" font-family="system-ui, sans-serif" font-size="9" font-weight="700" fill="#cbd5e1">09:41 AM</text>
    </g>

    <!-- App Body: Today at a glance -->
    <g transform="translate(24, 110)">
      <text x="0" y="0" font-family="system-ui, sans-serif" font-size="12" font-weight="800" fill="#1e293b">Today at a glance</text>
      <text x="0" y="14" font-family="system-ui, sans-serif" font-size="9" font-weight="600" fill="#64748b">Tuesday 2 September 2026</text>
      
      <!-- 6 Mini Metric Cards -->
      <!-- 4 Total Employees -->
      <rect x="0" y="24" width="84" height="52" rx="8" fill="#f0fdf4" stroke="#bbf7d0"/>
      <text x="10" y="48" font-family="system-ui, sans-serif" font-size="18" font-weight="900" fill="#16a34a">4</text>
      <text x="10" y="66" font-family="system-ui, sans-serif" font-size="8" font-weight="700" fill="#15803d">Total Employees</text>

      <!-- 3 Present Daily -->
      <rect x="92" y="24" width="84" height="52" rx="8" fill="#ecfeff" stroke="#a5f3fc"/>
      <text x="102" y="48" font-family="system-ui, sans-serif" font-size="18" font-weight="900" fill="#0284c7">3</text>
      <text x="102" y="66" font-family="system-ui, sans-serif" font-size="8" font-weight="700" fill="#0369a1">Present Daily</text>

      <!-- 1 Absent Today -->
      <rect x="184" y="24" width="88" height="52" rx="8" fill="#fef2f2" stroke="#fecaca"/>
      <text x="194" y="48" font-family="system-ui, sans-serif" font-size="18" font-weight="900" fill="#dc2626">1</text>
      <text x="194" y="66" font-family="system-ui, sans-serif" font-size="8" font-weight="700" fill="#b91c1c">Absent Today</text>

      <!-- Row 2 -->
      <rect x="0" y="84" width="84" height="44" rx="8" fill="#ffffff" stroke="#e2e8f0"/>
      <text x="10" y="104" font-family="system-ui, sans-serif" font-size="14" font-weight="800" fill="#475569">0</text>
      <text x="10" y="118" font-family="system-ui, sans-serif" font-size="8" font-weight="600" fill="#64748b">Late Today</text>

      <rect x="92" y="84" width="84" height="44" rx="8" fill="#ffffff" stroke="#e2e8f0"/>
      <text x="102" y="104" font-family="system-ui, sans-serif" font-size="14" font-weight="800" fill="#475569">3</text>
      <text x="102" y="118" font-family="system-ui, sans-serif" font-size="8" font-weight="600" fill="#64748b">Currently Working</text>

      <rect x="184" y="84" width="88" height="44" rx="8" fill="#ffffff" stroke="#e2e8f0"/>
      <text x="194" y="104" font-family="system-ui, sans-serif" font-size="14" font-weight="800" fill="#475569">0.0</text>
      <text x="194" y="118" font-family="system-ui, sans-serif" font-size="8" font-weight="600" fill="#64748b">Unassigned</text>
    </g>

    <!-- Blue Announcement Bar -->
    <g transform="translate(24, 252)">
      <rect x="0" y="0" width="272" height="28" rx="7" fill="#432bb3"/>
      <text x="12" y="18" font-family="system-ui, sans-serif" font-size="10" font-weight="700" fill="#ffffff">Broadcast Message: 2 Orders Done</text>
    </g>

    <!-- LIVE ATTENDANCE REGISTER TABLE (inside phone) -->
    <g transform="translate(24, 290)">
      <rect x="0" y="0" width="272" height="150" rx="10" fill="#ffffff" stroke="#e2e8f0"/>
      <text x="10" y="18" font-family="system-ui, sans-serif" font-size="10" font-weight="800" fill="#0f172a">LIVE ATTENDANCE REGISTER</text>
      
      <line x1="10" y1="26" x2="262" y2="26" stroke="#f1f5f9"/>
      <g transform="translate(10, 42)" font-family="system-ui, sans-serif" font-size="9" font-weight="700" fill="#64748b">
        <text x="0" y="0">EMPLOYEE</text>
        <text x="80" y="0">IN</text>
        <text x="140" y="0">OUT</text>
        <text x="190" y="0">STATUS</text>
      </g>

      <!-- Row 1: Gogo -->
      <g transform="translate(10, 68)" font-family="system-ui, sans-serif" font-size="9">
        <text x="0" y="0" font-weight="700" fill="#0f172a">Gogo</text>
        <text x="80" y="0" fill="#475569">10:00 AM</text>
        <text x="140" y="0" fill="#94a3b8">-- : --</text>
        <rect x="186" y="-11" width="48" height="15" rx="4" fill="#dcfce7"/>
        <text x="192" y="0" font-size="8" font-weight="800" fill="#15803d">Working</text>
      </g>

      <!-- Row 2: Sarfu -->
      <g transform="translate(10, 96)" font-family="system-ui, sans-serif" font-size="9">
        <text x="0" y="0" font-weight="700" fill="#0f172a">Sarfu</text>
        <text x="80" y="0" fill="#475569">10:00 AM</text>
        <text x="140" y="0" fill="#94a3b8">-- : --</text>
        <rect x="186" y="-11" width="48" height="15" rx="4" fill="#dcfce7"/>
        <text x="192" y="0" font-size="8" font-weight="800" fill="#15803d">Working</text>
      </g>

      <!-- Row 3: Singha -->
      <g transform="translate(10, 124)" font-family="system-ui, sans-serif" font-size="9">
        <text x="0" y="0" font-weight="700" fill="#0f172a">Singha</text>
        <text x="80" y="0" fill="#475569">10:00 AM</text>
        <text x="140" y="0" fill="#94a3b8">-- : --</text>
        <rect x="186" y="-11" width="48" height="15" rx="4" fill="#dcfce7"/>
        <text x="192" y="0" font-size="8" font-weight="800" fill="#15803d">Working</text>
      </g>
    </g>

    <!-- Scan & Pay QR Code Card at Bottom of Phone -->
    <g transform="translate(24, 452)">
      <rect x="0" y="0" width="272" height="64" rx="10" fill="#1e293b"/>
      <g transform="translate(14, 12)">
        <rect x="0" y="0" width="40" height="40" rx="4" fill="#ffffff"/>
        <!-- Mini QR pattern -->
        <rect x="4" y="4" width="12" height="12" fill="#000000"/>
        <rect x="24" y="4" width="12" height="12" fill="#000000"/>
        <rect x="4" y="24" width="12" height="12" fill="#000000"/>
        <rect x="18" y="18" width="6" height="6" fill="#000000"/>
      </g>
      <text x="68" y="28" font-family="system-ui, sans-serif" font-size="12" font-weight="800" fill="#ffffff">Scan &amp; Pay Instant</text>
      <text x="68" y="46" font-family="system-ui, sans-serif" font-size="9" font-weight="600" fill="#94a3b8">Quick salary advance via UPI</text>
    </g>
  </g>

  <!-- 6 NUMBERED CORE FEATURE BLOCKS (FLANKING PHONE) -->

  <!-- LEFT FLANK (01, 02, 03) -->
  <!-- 01 - DAILY TASKS -->
  <g transform="translate(50, 360)">
    <rect x="0" y="0" width="300" height="100" rx="18" fill="#ffffff" stroke="#e2e8f0" filter="url(#shadowFeature)"/>
    <g transform="translate(18, 20)">
      <rect x="0" y="0" width="60" height="60" rx="14" fill="#1e293b"/>
      <!-- Checklist Icon -->
      <polyline points="18,30 26,38 42,22" fill="none" stroke="#38bdf8" stroke-width="4" stroke-linecap="round" stroke-linejoin="round"/>
    </g>
    <g transform="translate(92, 34)">
      <text x="0" y="0" font-family="system-ui, sans-serif" font-size="14" font-weight="900" fill="#0f172a">01 — DAILY TASKS</text>
      <text x="0" y="22" font-family="system-ui, sans-serif" font-size="11" font-weight="600" fill="#475569">Organize and assign</text>
      <text x="0" y="38" font-family="system-ui, sans-serif" font-size="11" font-weight="600" fill="#475569">employee tasks every day.</text>
    </g>
  </g>

  <!-- 02 - PAYSLIPS & AUDIT -->
  <g transform="translate(50, 490)">
    <rect x="0" y="0" width="300" height="100" rx="18" fill="#ffffff" stroke="#e2e8f0" filter="url(#shadowFeature)"/>
    <g transform="translate(18, 20)">
      <rect x="0" y="0" width="60" height="60" rx="14" fill="#1e293b"/>
      <!-- Payslip Document Icon -->
      <rect x="16" y="14" width="28" height="34" rx="3" fill="none" stroke="#38bdf8" stroke-width="3.5"/>
      <line x1="22" y1="22" x2="38" y2="22" stroke="#38bdf8" stroke-width="3"/>
      <line x1="22" y1="30" x2="38" y2="30" stroke="#38bdf8" stroke-width="3"/>
    </g>
    <g transform="translate(92, 34)">
      <text x="0" y="0" font-family="system-ui, sans-serif" font-size="14" font-weight="900" fill="#0f172a">02 — PAYSLIPS &amp; AUDIT</text>
      <text x="0" y="22" font-family="system-ui, sans-serif" font-size="11" font-weight="600" fill="#475569">Maintain employee payslips</text>
      <text x="0" y="38" font-family="system-ui, sans-serif" font-size="11" font-weight="600" fill="#475569">and important records.</text>
    </g>
  </g>

  <!-- 03 - LEAVE MANAGEMENT -->
  <g transform="translate(50, 620)">
    <rect x="0" y="0" width="300" height="100" rx="18" fill="#ffffff" stroke="#e2e8f0" filter="url(#shadowFeature)"/>
    <g transform="translate(18, 20)">
      <rect x="0" y="0" width="60" height="60" rx="14" fill="#1e293b"/>
      <!-- Calendar Clock Icon -->
      <rect x="14" y="16" width="32" height="30" rx="4" fill="none" stroke="#38bdf8" stroke-width="3.5"/>
      <circle cx="34" cy="36" r="8" fill="#1e293b" stroke="#38bdf8" stroke-width="2.5"/>
    </g>
    <g transform="translate(92, 34)">
      <text x="0" y="0" font-family="system-ui, sans-serif" font-size="14" font-weight="900" fill="#0f172a">03 — LEAVE MANAGEMENT</text>
      <text x="0" y="22" font-family="system-ui, sans-serif" font-size="11" font-weight="600" fill="#475569">Track employee leave and</text>
      <text x="0" y="38" font-family="system-ui, sans-serif" font-size="11" font-weight="600" fill="#475569">attendance records.</text>
    </g>
  </g>

  <!-- RIGHT FLANK (04, 05, 06) -->
  <!-- 04 - WORKING HOURS -->
  <g transform="translate(730, 360)">
    <rect x="0" y="0" width="300" height="100" rx="18" fill="#ffffff" stroke="#e2e8f0" filter="url(#shadowFeature)"/>
    <g transform="translate(18, 20)">
      <rect x="0" y="0" width="60" height="60" rx="14" fill="#1e293b"/>
      <!-- Clock Icon -->
      <circle cx="30" cy="30" r="18" fill="none" stroke="#38bdf8" stroke-width="3.5"/>
      <polyline points="30,18 30,30 38,34" fill="none" stroke="#38bdf8" stroke-width="3.5" stroke-linecap="round"/>
    </g>
    <g transform="translate(92, 34)">
      <text x="0" y="0" font-family="system-ui, sans-serif" font-size="14" font-weight="900" fill="#0f172a">04 — WORKING HOURS</text>
      <text x="0" y="22" font-family="system-ui, sans-serif" font-size="11" font-weight="600" fill="#475569">Record and monitor</text>
      <text x="0" y="38" font-family="system-ui, sans-serif" font-size="11" font-weight="600" fill="#475569">employee working hours.</text>
    </g>
  </g>

  <!-- 05 - BROADCAST MESSAGES -->
  <g transform="translate(730, 490)">
    <rect x="0" y="0" width="300" height="100" rx="18" fill="#ffffff" stroke="#e2e8f0" filter="url(#shadowFeature)"/>
    <g transform="translate(18, 20)">
      <rect x="0" y="0" width="60" height="60" rx="14" fill="#1e293b"/>
      <!-- Megaphone Icon -->
      <path d="M 20 22 L 32 16 L 42 22 L 42 36 L 32 42 L 20 36 Z" fill="#38bdf8"/>
    </g>
    <g transform="translate(92, 30)">
      <text x="0" y="0" font-family="system-ui, sans-serif" font-size="13" font-weight="900" fill="#0f172a">05 — BROADCAST</text>
      <text x="0" y="16" font-family="system-ui, sans-serif" font-size="13" font-weight="900" fill="#0f172a">MESSAGES</text>
      <text x="0" y="34" font-family="system-ui, sans-serif" font-size="11" font-weight="600" fill="#475569">Send important announcements</text>
      <text x="0" y="48" font-family="system-ui, sans-serif" font-size="11" font-weight="600" fill="#475569">to entire team instantly.</text>
    </g>
  </g>

  <!-- 06 - WORK ACTIVITY -->
  <g transform="translate(730, 620)">
    <rect x="0" y="0" width="300" height="100" rx="18" fill="#ffffff" stroke="#e2e8f0" filter="url(#shadowFeature)"/>
    <g transform="translate(18, 20)">
      <rect x="0" y="0" width="60" height="60" rx="14" fill="#1e293b"/>
      <!-- Activity Bars -->
      <rect x="18" y="32" width="6" height="16" rx="2" fill="#38bdf8"/>
      <rect x="28" y="24" width="6" height="24" rx="2" fill="#38bdf8"/>
      <rect x="38" y="16" width="6" height="32" rx="2" fill="#38bdf8"/>
    </g>
    <g transform="translate(92, 34)">
      <text x="0" y="0" font-family="system-ui, sans-serif" font-size="14" font-weight="900" fill="#0f172a">06 — WORK ACTIVITY</text>
      <text x="0" y="22" font-family="system-ui, sans-serif" font-size="11" font-weight="600" fill="#475569">Monitor daily, weekly and</text>
      <text x="0" y="38" font-family="system-ui, sans-serif" font-size="11" font-weight="600" fill="#475569">monthly employee activity.</text>
    </g>
  </g>

  <g transform="translate(730, 740)">
    <text x="0" y="0" font-family="system-ui, sans-serif" font-size="16" font-weight="700" fill="#0f172a">
      And much more to keep your shop organized.
    </text>
  </g>

  <!-- BEFORE VS AFTER VISUAL STORY SECTION (Y: 1060 to 1480) -->
  <g transform="translate(0, 1070)">
    
    <!-- Left: Frustrated Shopkeeper with Paper Registers -->
    <g transform="translate(80, 0)">
      <!-- Loose paper graphics background -->
      <g opacity="0.85">
        <rect x="30" y="70" width="130" height="170" rx="6" fill="#ffffff" stroke="#cbd5e1" stroke-width="2" transform="rotate(-8 95 155)"/>
        <text x="45" y="105" font-family="system-ui, sans-serif" font-size="10" font-weight="800" fill="#94a3b8" transform="rotate(-8 95 155)">PAPER REGISTERS</text>
        <line x1="45" y1="120" x2="145" y2="120" stroke="#e2e8f0" stroke-width="2" transform="rotate(-8 95 155)"/>
        <line x1="45" y1="135" x2="145" y2="135" stroke="#e2e8f0" stroke-width="2" transform="rotate(-8 95 155)"/>

        <rect x="180" y="110" width="140" height="90" rx="6" fill="#ffffff" stroke="#cbd5e1" stroke-width="2" transform="rotate(6 250 155)"/>
        <text x="195" y="135" font-family="system-ui, sans-serif" font-size="10" font-weight="800" fill="#94a3b8" transform="rotate(6 250 155)">PAYSLIP</text>
        
        <!-- Sticky notes -->
        <rect x="80" y="40" width="60" height="50" rx="3" fill="#fef08a" transform="rotate(12 110 65)"/>
        <text x="86" y="65" font-family="system-ui, sans-serif" font-size="8" font-weight="700" fill="#854d0e" transform="rotate(12 110 65)">Attendance</text>
      </g>

      <!-- Shopkeeper Before Portrait -->
      <circle cx="270" cy="180" r="100" fill="#fee2e2" stroke="#fca5a5" stroke-width="3"/>
      <!-- Frustrated face & messy hair icon representation -->
      <circle cx="270" cy="165" r="45" fill="#fed7aa"/>
      <path d="M 230 150 Q 270 120 310 150 Q 270 135 230 150" fill="#451a03"/> <!-- hair -->
      <circle cx="255" cy="165" r="4" fill="#0f172a"/>
      <circle cx="285" cy="165" r="4" fill="#0f172a"/>
      <path d="M 255 185 Q 270 175 285 185" fill="none" stroke="#0f172a" stroke-width="3" stroke-linecap="round"/> <!-- frown -->
      <!-- Black Shop Apron -->
      <path d="M 225 210 L 315 210 L 330 290 L 210 290 Z" fill="#18181b"/>
      <!-- Hands holding head in stress -->
      <path d="M 220 180 Q 230 150 240 160" stroke="#ea580c" stroke-width="8" stroke-linecap="round"/>
      <path d="M 320 180 Q 310 150 300 160" stroke="#ea580c" stroke-width="8" stroke-linecap="round"/>
    </g>

    <!-- CENTER PILL: LIMITED TIME OFFER! ₹99 only -->
    <g transform="translate(540, 160)" text-anchor="middle">
      <ellipse cx="0" cy="0" rx="100" ry="70" fill="url(#offerBadgeGrad)" filter="url(#shadowP2Lg)"/>
      <text y="-26" font-family="system-ui, sans-serif" font-size="12" font-weight="900" fill="#14532d" letter-spacing="1">LIMITED</text>
      <text y="-10" font-family="system-ui, sans-serif" font-size="12" font-weight="900" fill="#14532d" letter-spacing="1">TIME OFFER!</text>
      
      <text y="14" font-family="system-ui, sans-serif" font-size="11" font-weight="800" fill="#1e293b">One-Time Annual</text>
      <text y="28" font-family="system-ui, sans-serif" font-size="11" font-weight="800" fill="#1e293b">Subscription</text>
      
      <text y="54" font-family="system-ui, sans-serif" font-size="28" font-weight="900" fill="#0f172a">₹99 only</text>
    </g>

    <!-- Right: Happy Modern Shopkeeper with GOGO LOG on Phone -->
    <g transform="translate(680, 0)">
      <circle cx="160" cy="180" r="100" fill="#dcfce7" stroke="#86efac" stroke-width="3"/>
      <!-- Happy shopkeeper with glasses -->
      <circle cx="160" cy="160" r="45" fill="#fed7aa"/>
      <path d="M 125 145 Q 160 120 195 145 Q 160 135 125 145" fill="#1c1917"/> <!-- groomed hair -->
      <!-- Glasses -->
      <circle cx="148" cy="160" r="10" fill="none" stroke="#0f172a" stroke-width="2.5"/>
      <circle cx="172" cy="160" r="10" fill="none" stroke="#0f172a" stroke-width="2.5"/>
      <line x1="158" y1="160" x2="162" y2="160" stroke="#0f172a" stroke-width="2.5"/>
      <!-- Smile -->
      <path d="M 148 180 Q 160 194 172 180" fill="none" stroke="#0f172a" stroke-width="3" stroke-linecap="round"/>
      <!-- Black Apron with shirt -->
      <path d="M 115 205 L 205 205 L 220 290 L 100 290 Z" fill="#18181b"/>
      <!-- Holding phone -->
      <rect x="195" y="190" width="36" height="65" rx="6" fill="#0284c7" stroke="#ffffff" stroke-width="2"/>
      <circle cx="213" cy="245" r="3" fill="#ffffff"/>
    </g>

    <!-- Transforming Arrow & Tagline -->
    <g transform="translate(540, 270)" text-anchor="middle">
      <text y="0" font-family="system-ui, sans-serif" font-size="24" font-weight="900" fill="#0f172a">
        From scattered records → to one organized system.
      </text>
    </g>

  </g>

  <!-- BOTTOM FOOTER CONVERSION BANNER (Dark Navy Gradient) -->
  <g transform="translate(0, 1680)">
    <rect x="0" y="0" width="1080" height="240" fill="#050a14"/>
    
    <!-- Left Copy -->
    <g transform="translate(60, 60)">
      <text x="0" y="0" font-family="system-ui, sans-serif" font-size="28" font-weight="900" fill="#ffffff">
        MAKE EMPLOYEE MANAGEMENT SIMPLE.
      </text>
      <text x="0" y="32" font-family="system-ui, sans-serif" font-size="16" font-weight="600" fill="#cbd5e1">
        Start managing your shop smarter with GOGO LOG for just ₹99.
      </text>
      <text x="0" y="58" font-family="system-ui, sans-serif" font-size="16" font-weight="600" fill="#cbd5e1">
        Special one-time annual subscription available.
      </text>
    </g>

    <!-- Right WhatsApp CTA -->
    <g transform="translate(660, 48)">
      <!-- WhatsApp Logo -->
      <circle cx="44" cy="44" r="40" fill="#22c55e"/>
      <path d="M 28 58 L 32 46 A 17 17 0 1 1 58 46 A 17 17 0 0 1 44 58 A 17 17 0 0 1 36 56 Z" fill="#ffffff"/>
      <path d="M 38 35 C 37 34 36 34 35 35 C 34 36 33 38 33 39 C 33 42 35 45 38 48 C 41 51 44 53 47 53 C 49 53 50 52 51 51 C 52 49 52 48 51 47 C 50 46 48 45 47 45 C 46 45 45 45 45 46 C 44 47 44 47 43 47 C 42 47 40 45 37 42 C 35 40 35 39 36 39 C 36 38 37 38 37 37 Z" fill="#22c55e"/>

      <!-- Text -->
      <text x="100" y="28" font-family="system-ui, sans-serif" font-size="18" font-weight="900" fill="#ffffff">
        GET THIS APPLICATION
      </text>
      <text x="100" y="52" font-family="system-ui, sans-serif" font-size="18" font-weight="900" fill="#22c55e">
        ONLY WITH WHATSAPP
      </text>
      <text x="100" y="82" font-family="system-ui, sans-serif" font-size="20" font-weight="900" fill="#ffffff">
        WhatsApp No: +91-9068254755
      </text>
    </g>
  </g>

</svg>